<?xml version="1.0" encoding="UTF-8" standalone="no"?>
<svg
   height="16"
   viewBox="0 -960 1344 768"
   width="28"
   fill="#1f1f1f"
   version="1.1"
   id="svg1"
   sodipodi:docname="battery_3.svg"
   inkscape:version="1.4.3 (0d15f75042, 2025-12-25)"
   xml:space="preserve"
   xmlns:inkscape="http://www.inkscape.org/namespaces/inkscape"
   xmlns:sodipodi="http://sodipodi.sourceforge.net/DTD/sodipodi-0.dtd"
   xmlns="http://www.w3.org/2000/svg"
   xmlns:svg="http://www.w3.org/2000/svg"><defs
     id="defs1" /><sodipodi:namedview
     id="namedview1"
     pagecolor="#ffffff"
     bordercolor="#000000"
     borderopacity="0.25"
     inkscape:showpageshadow="2"
     inkscape:pageopacity="0.0"
     inkscape:pagecheckerboard="0"
     inkscape:deskcolor="#d1d1d1"
     inkscape:zoom="11.655078"
     inkscape:cx="14.242719"
     inkscape:cy="19.905487"
     inkscape:window-width="1025"
     inkscape:window-height="993"
     inkscape:window-x="0"
     inkscape:window-y="0"
     inkscape:window-maximized="0"
     inkscape:current-layer="svg1" /><g
     style="fill:#cdd6f4;fill-opacity:1"
     id="g3"
     transform="matrix(1.631068,0,0,1.631068,-150.04521,206.91264)"><path
       d="m 194.5,-274 q -36.87,0 -62.69,-25.81 Q 106,-325.63 106,-362.5 v -235 q 0,-36.88 25.81,-62.69 Q 157.63,-686 194.5,-686 h 528 q 36.88,0 62.69,25.81 25.81,25.81 25.81,62.69 v 235 q 0,36.87 -25.81,62.69 Q 759.38,-274 722.5,-274 Z M 413,-341 h 309.5 q 8.7,0 15.1,-6.4 6.4,-6.4 6.4,-15.1 v -235 q 0,-8.7 -6.4,-15.1 -6.4,-6.4 -15.1,-6.4 H 413 Z m 443.5,-47.5 V -571 h 12 q 15.5,0 24.5,9 9,9 9,24.5 V -422 q 0,15.5 -9,24.5 -9,9 -24.5,9 z"
       id="path1-2"
       style="fill:#cdd6f4;fill-opacity:1" /></g></svg>
